/* XPM */
static char * picohelp_xpm[] = {
"32 32 816 2",
"  	c None",
". 	c #FFFFFF",
"+ 	c #C8D7D9",
"@ 	c #DEDFE1",
"# 	c #C4CDD1",
"$ 	c #C1CCD2",
"% 	c #DCE3E2",
"& 	c #F6F6EA",
"* 	c #FCF3E5",
"= 	c #DFE5E2",
"- 	c #D6E1DE",
"; 	c #DEE4E0",
"> 	c #E4E7DF",
", 	c #D1DBD8",
"' 	c #DCE0DE",
") 	c #F3F2E7",
"! 	c #D9E4DD",
"~ 	c #F0F0E6",
"{ 	c #FFFFF0",
"] 	c #F4F5E9",
"^ 	c #D3D8D9",
"/ 	c #DBE3DF",
"( 	c #E5E8E1",
"_ 	c #DCE2DD",
": 	c #D0D3D3",
"< 	c #D2D4D2",
"[ 	c #D2D7D6",
"} 	c #D6D6D4",
"| 	c #D3DDDC",
"1 	c #CED1CF",
"2 	c #C3D1D2",
"3 	c #BCD3D7",
"4 	c #D5DEDB",
"5 	c #DFE1DA",
"6 	c #A5B9BF",
"7 	c #A7B1BC",
"8 	c #C5CECC",
"9 	c #E7E5D5",
"0 	c #ABBBC4",
"a 	c #B6C0C3",
"b 	c #C8CFC8",
"c 	c #B4BCC0",
"d 	c #9DB1B3",
"e 	c #A3ADAF",
"f 	c #94A0A9",
"g 	c #94A9AE",
"h 	c #BCC5C1",
"i 	c #D7E4CD",
"j 	c #D2E3C8",
"k 	c #A0AEB4",
"l 	c #9AB2B8",
"m 	c #98AAB4",
"n 	c #ACBFCA",
"o 	c #AAC1CA",
"p 	c #CACFD1",
"q 	c #F4F9ED",
"r 	c #B5B8BA",
"s 	c #ECDDD5",
"t 	c #DFCCBE",
"u 	c #D4C7C3",
"v 	c #FFF7CE",
"w 	c #CCC7C0",
"x 	c #CFCCC5",
"y 	c #8493A0",
"z 	c #99A4B0",
"A 	c #BCBFB9",
"B 	c #A4B2AD",
"C 	c #7F8B9D",
"D 	c #99A4AB",
"E 	c #91A6B2",
"F 	c #9BAEB7",
"G 	c #A8BBC0",
"H 	c #95B0BD",
"I 	c #89A1B6",
"J 	c #8698B0",
"K 	c #B1AFB4",
"L 	c #9697B2",
"M 	c #959BB1",
"N 	c #AAACB5",
"O 	c #B8B1BA",
"P 	c #CAC6BB",
"Q 	c #D6DBE0",
"R 	c #C9C6BF",
"S 	c #BBBABC",
"T 	c #CCD1C7",
"U 	c #A0A19E",
"V 	c #7996A6",
"W 	c #687E92",
"X 	c #6A879F",
"Y 	c #647C96",
"Z 	c #687A94",
"` 	c #758A9F",
" .	c #9199A0",
"..	c #979EA8",
"+.	c #8698A3",
"@.	c #7A92A3",
"#.	c #809CA9",
"$.	c #A2ABB4",
"%.	c #D1CDC1",
"&.	c #B4B3B1",
"*.	c #ADA9A3",
"=.	c #FFE7CA",
"-.	c #FFF0CB",
";.	c #FFFFCF",
">.	c #FFFFC2",
",.	c #FFF3BB",
"'.	c #FFFFC6",
").	c #FFFFCA",
"!.	c #FFFFC9",
"~.	c #D6C1AF",
"{.	c #6A7D86",
"].	c #8CA4B2",
"^.	c #B7D3E5",
"/.	c #EAF5FA",
"(.	c #5F6168",
"_.	c #98A4B1",
":.	c #919CA2",
"<.	c #94A0A5",
"[.	c #98A1A5",
"}.	c #8B9EA6",
"|.	c #8FA0A8",
"1.	c #7B90A1",
"2.	c #7591A5",
"3.	c #8797A7",
"4.	c #C8BBAF",
"5.	c #F2D2B6",
"6.	c #B5A7A1",
"7.	c #BFB0A7",
"8.	c #607084",
"9.	c #4F647F",
"0.	c #677987",
"a.	c #6D858D",
"b.	c #B2B5A6",
"c.	c #FFE8BB",
"d.	c #FFFDC4",
"e.	c #FBDDBA",
"f.	c #F5CDB5",
"g.	c #FFE4AF",
"h.	c #D9C0B3",
"i.	c #9F9087",
"j.	c #F7FFFE",
"k.	c #584F4E",
"l.	c #B7BBC2",
"m.	c #879195",
"n.	c #A8B3B9",
"o.	c #9CA5A9",
"p.	c #8FA5AE",
"q.	c #8095AA",
"r.	c #9CA6A9",
"s.	c #9AA0A7",
"t.	c #BFB6AE",
"u.	c #F9D5B8",
"v.	c #E8C9A9",
"w.	c #B1A599",
"x.	c #526E84",
"y.	c #596B83",
"z.	c #637C8A",
"A.	c #78848E",
"B.	c #7F8991",
"C.	c #75848D",
"D.	c #727E8B",
"E.	c #4E637D",
"F.	c #405B7F",
"G.	c #556783",
"H.	c #3A5879",
"I.	c #254E71",
"J.	c #5E6F83",
"K.	c #688092",
"L.	c #31485D",
"M.	c #DFF6FC",
"N.	c #273645",
"O.	c #CFD6D5",
"P.	c #7A7878",
"Q.	c #6F899A",
"R.	c #777F8C",
"S.	c #C9ACA6",
"T.	c #F6D0B2",
"U.	c #EAC7AC",
"V.	c #FFD8B0",
"W.	c #E2C7A8",
"X.	c #657C8F",
"Y.	c #4E6B88",
"Z.	c #597388",
"`.	c #7C8690",
" +	c #828A8F",
".+	c #7D858E",
"++	c #78838D",
"@+	c #79858E",
"#+	c #7A858E",
"$+	c #7A858D",
"%+	c #78898D",
"&+	c #8D8C8D",
"*+	c #7C858B",
"=+	c #8D9191",
"-+	c #8F9492",
";+	c #8C8E8D",
">+	c #8E8785",
",+	c #464C51",
"'+	c #D0E0E5",
")+	c #B3B9C0",
"!+	c #C4D2DA",
"~+	c #C6D7E6",
"{+	c #A7B7C1",
"]+	c #988E96",
"^+	c #938E8D",
"/+	c #8E8C93",
"(+	c #657B8A",
"_+	c #737F89",
":+	c #838788",
"<+	c #6F7F8E",
"[+	c #8B8C92",
"}+	c #888B91",
"|+	c #808B91",
"1+	c #7C868F",
"2+	c #76848D",
"3+	c #7A868F",
"4+	c #72848D",
"5+	c #7B878E",
"6+	c #8B8D90",
"7+	c #868B8E",
"8+	c #7C838D",
"9+	c #96918E",
"0+	c #8B8F8E",
"a+	c #94908D",
"b+	c #82898C",
"c+	c #9F948B",
"d+	c #B9A997",
"e+	c #F4FFFF",
"f+	c #9499A3",
"g+	c #577080",
"h+	c #B1B6C1",
"i+	c #363A3F",
"j+	c #C4A499",
"k+	c #B3A191",
"l+	c #A69D98",
"m+	c #DAB79C",
"n+	c #DFBC9F",
"o+	c #B9A89C",
"p+	c #AEA296",
"q+	c #8D8F92",
"r+	c #818B92",
"s+	c #8A8D92",
"t+	c #82898F",
"u+	c #7E878F",
"v+	c #7B888E",
"w+	c #8F908F",
"x+	c #B19B90",
"y+	c #85908E",
"z+	c #99948F",
"A+	c #AB9A90",
"B+	c #A19B8F",
"C+	c #B8A991",
"D+	c #95938F",
"E+	c #CDB194",
"F+	c #BE9E88",
"G+	c #765A56",
"H+	c #576170",
"I+	c #C9E6ED",
"J+	c #998C94",
"K+	c #2B3F49",
"L+	c #E6CDA5",
"M+	c #E5C09E",
"N+	c #FFCFA8",
"O+	c #F8CAA8",
"P+	c #C3AC9C",
"Q+	c #C3A899",
"R+	c #969494",
"S+	c #939798",
"T+	c #989496",
"U+	c #9F9191",
"V+	c #798890",
"W+	c #7D888F",
"X+	c #7E858A",
"Y+	c #8F8C8A",
"Z+	c #A4968D",
"`+	c #CAAE96",
" @	c #80868E",
".@	c #B6A28D",
"+@	c #C1AA8E",
"@@	c #B5A28B",
"#@	c #D6AB8E",
"$@	c #AB9C8B",
"%@	c #D4AC89",
"&@	c #AF9F8D",
"*@	c #797267",
"=@	c #B7B6B6",
"-@	c #B19B9B",
";@	c #64727A",
">@	c #898C90",
",@	c #CEAD98",
"'@	c #BFA18B",
")@	c #AC9388",
"!@	c #BC9F8C",
"~@	c #D6B393",
"{@	c #C2B19A",
"]@	c #B9AEA1",
"^@	c #869292",
"/@	c #A8A79F",
"(@	c #789399",
"_@	c #80888F",
":@	c #8E9191",
"<@	c #A7A3A2",
"[@	c #CCB9A3",
"}@	c #D3BFA4",
"|@	c #D5B898",
"1@	c #ABA68D",
"2@	c #EEC192",
"3@	c #C8AF8C",
"4@	c #C5A48B",
"5@	c #CCA88B",
"6@	c #C0A086",
"7@	c #D1A785",
"8@	c #E2BC92",
"9@	c #CE946D",
"0@	c #9EB3B8",
"a@	c #898B90",
"b@	c #64686E",
"c@	c #888E8F",
"d@	c #B89488",
"e@	c #A79C89",
"f@	c #B9A28F",
"g@	c #FFC694",
"h@	c #E5BB90",
"i@	c #9A807C",
"j@	c #615763",
"k@	c #725E64",
"l@	c #B87064",
"m@	c #AD8079",
"n@	c #637073",
"o@	c #867573",
"p@	c #847470",
"q@	c #B08171",
"r@	c #D89E7E",
"s@	c #E5B48D",
"t@	c #A48176",
"u@	c #A58175",
"v@	c #FFC893",
"w@	c #E6BD94",
"x@	c #F8C197",
"y@	c #DEB988",
"z@	c #B19881",
"A@	c #9D8F7A",
"B@	c #756659",
"C@	c #676660",
"D@	c #E1E5E4",
"E@	c #9FACB7",
"F@	c #12151F",
"G@	c #ECC59D",
"H@	c #AB9081",
"I@	c #7A7578",
"J@	c #3D4F6E",
"K@	c #254166",
"L@	c #3D5164",
"M@	c #4F636C",
"N@	c #50616F",
"O@	c #52606F",
"P@	c #856D6F",
"Q@	c #7E686D",
"R@	c #55656D",
"S@	c #2A566B",
"T@	c #455669",
"U@	c #323F5A",
"V@	c #19395E",
"W@	c #364255",
"X@	c #223C55",
"Y@	c #534958",
"Z@	c #35495F",
"`@	c #53545F",
" #	c #B18172",
".#	c #BD8F74",
"+#	c #FFC991",
"@#	c #CC956C",
"##	c #C2CFCE",
"$#	c #9AA5AB",
"%#	c #CAE1EE",
"&#	c #616C77",
"*#	c #897278",
"=#	c #4F536A",
"-#	c #41556C",
";#	c #4A5F6D",
">#	c #575F6C",
",#	c #59616D",
"'#	c #54606C",
")#	c #57606C",
"!#	c #585F6B",
"~#	c #56686C",
"{#	c #777876",
"]#	c #616D6D",
"^#	c #9A6E6B",
"/#	c #756365",
"(#	c #435964",
"_#	c #4F5C63",
":#	c #505D64",
"<#	c #4F5D68",
"[#	c #4A5A64",
"}#	c #3E5A64",
"|#	c #746363",
"1#	c #4F4F5C",
"2#	c #1F3E55",
"3#	c #43495A",
"4#	c #512512",
"5#	c #DBCFC7",
"6#	c #4C1000",
"7#	c #594435",
"8#	c #2B2D30",
"9#	c #5C6574",
"0#	c #5B6268",
"a#	c #58626E",
"b#	c #5A616D",
"c#	c #56606B",
"d#	c #5B626C",
"e#	c #54646E",
"f#	c #45626D",
"g#	c #7E7677",
"h#	c #72706C",
"i#	c #655660",
"j#	c #A86762",
"k#	c #5B5C61",
"l#	c #675A61",
"m#	c #495762",
"n#	c #4D5762",
"o#	c #505962",
"p#	c #585D61",
"q#	c #B07963",
"r#	c #645E60",
"s#	c #616361",
"t#	c #5D5C5E",
"u#	c #656E72",
"v#	c #C7D3D4",
"w#	c #EFFFFF",
"x#	c #C1C0B5",
"y#	c #F2F8F8",
"z#	c #706768",
"A#	c #5E6871",
"B#	c #515B67",
"C#	c #545F6C",
"D#	c #50606B",
"E#	c #465D6B",
"F#	c #455D6B",
"G#	c #69686A",
"H#	c #B5816C",
"I#	c #A37868",
"J#	c #605B61",
"K#	c #2D4E60",
"L#	c #2B4B60",
"M#	c #405660",
"N#	c #4E5760",
"O#	c #4E565F",
"P#	c #4C555E",
"Q#	c #51575F",
"R#	c #4E5B5F",
"S#	c #6D605F",
"T#	c #4F595F",
"U#	c #5C5D5F",
"V#	c #615F60",
"W#	c #5B5356",
"X#	c #7E6857",
"Y#	c #594229",
"Z#	c #BABEBB",
"`#	c #CDC0AB",
" $	c #523B29",
".$	c #5C646F",
"+$	c #4E5864",
"@$	c #545D6A",
"#$	c #58606B",
"$$	c #54616A",
"%$	c #9C726A",
"&$	c #997367",
"*$	c #9F7666",
"=$	c #C57A64",
"-$	c #344C5F",
";$	c #51505E",
">$	c #50555E",
",$	c #55585F",
"'$	c #545657",
")$	c #4E555E",
"!$	c #4D545D",
"~$	c #53575E",
"{$	c #635D5F",
"]$	c #5C5D5D",
"^$	c #5A5D5E",
"/$	c #646060",
"($	c #666160",
"_$	c #69676C",
":$	c #785D43",
"<$	c #E5F0EE",
"[$	c #8A7965",
"}$	c #E8DAC7",
"|$	c #857C70",
"1$	c #56626C",
"2$	c #545A63",
"3$	c #575F68",
"4$	c #595F67",
"5$	c #595F64",
"6$	c #525863",
"7$	c #585862",
"8$	c #434F5F",
"9$	c #2C485D",
"0$	c #394E5E",
"a$	c #4B565D",
"b$	c #4F555E",
"c$	c #51565D",
"d$	c #4F545B",
"e$	c #56585D",
"f$	c #63605F",
"g$	c #645F5D",
"h$	c #635F5E",
"i$	c #68625F",
"j$	c #6C645C",
"k$	c #716F6F",
"l$	c #7C5B41",
"m$	c #E3F4F0",
"n$	c #3C0000",
"o$	c #D0A485",
"p$	c #AB9C93",
"q$	c #555E68",
"r$	c #585D64",
"s$	c #5C5F64",
"t$	c #5B5E63",
"u$	c #676461",
"v$	c #59565E",
"w$	c #4F545C",
"x$	c #51545D",
"y$	c #4E565C",
"z$	c #50555D",
"A$	c #54585E",
"B$	c #56595E",
"C$	c #54585D",
"D$	c #52565C",
"E$	c #52555B",
"F$	c #5A595C",
"G$	c #68625E",
"H$	c #69625E",
"I$	c #67615E",
"J$	c #6C645F",
"K$	c #716660",
"L$	c #6C6966",
"M$	c #795C43",
"N$	c #C1BBB0",
"O$	c #C5DBE9",
"P$	c #E6F4ED",
"Q$	c #6E4F31",
"R$	c #595F68",
"S$	c #545C62",
"T$	c #5E6065",
"U$	c #606064",
"V$	c #5F5F62",
"W$	c #50585E",
"X$	c #46545C",
"Y$	c #4E5C5D",
"Z$	c #4C525C",
"`$	c #51555C",
" %	c #54575D",
".%	c #58595E",
"+%	c #59595E",
"@%	c #54575C",
"#%	c #54565B",
"$%	c #605D5D",
"%%	c #6E6560",
"&%	c #6D655F",
"*%	c #6C635E",
"=%	c #71665F",
"-%	c #756960",
";%	c #766A64",
">%	c #7A5B47",
",%	c #A69880",
"'%	c #855F3B",
")%	c #D3B290",
"!%	c #975D39",
"~%	c #5C5F67",
"{%	c #5A5A5E",
"]%	c #626163",
"^%	c #625F62",
"/%	c #5D5C5F",
"(%	c #4C545B",
"_%	c #50545B",
":%	c #4C525A",
"<%	c #4D535B",
"[%	c #53565C",
"}%	c #56585C",
"|%	c #5B5B5E",
"1%	c #5B5B5D",
"2%	c #57585D",
"3%	c #55575C",
"4%	c #58585C",
"5%	c #64605E",
"6%	c #766860",
"7%	c #71675F",
"8%	c #70665F",
"9%	c #74685E",
"0%	c #796A5E",
"a%	c #7B736C",
"b%	c #654B2F",
"c%	c #7C3910",
"d%	c #C1B7A8",
"e%	c #958E89",
"f%	c #5F5F64",
"g%	c #645F5C",
"h%	c #636061",
"i%	c #665F60",
"j%	c #56575C",
"k%	c #4F535A",
"l%	c #51545A",
"m%	c #4F535B",
"n%	c #53555B",
"o%	c #56575B",
"p%	c #5F5D5D",
"q%	c #5C5A5B",
"r%	c #57575A",
"s%	c #57575B",
"t%	c #5C5A5C",
"u%	c #6A635F",
"v%	c #7B6B61",
"w%	c #76685F",
"x%	c #74675D",
"y%	c #76615D",
"z%	c #7C6B5C",
"A%	c #81796E",
"B%	c #70523D",
"C%	c #F2FFFF",
"D%	c #4C3113",
"E%	c #D3D2CA",
"F%	c #90867E",
"G%	c #686464",
"H%	c #655C5B",
"I%	c #605E5F",
"J%	c #494E55",
"K%	c #52565A",
"L%	c #55565C",
"M%	c #59595C",
"N%	c #5E5B5D",
"O%	c #615D5D",
"P%	c #58595A",
"Q%	c #575859",
"R%	c #5A5459",
"S%	c #5B585A",
"T%	c #6F655E",
"U%	c #7F6C5F",
"V%	c #78695D",
"W%	c #75685C",
"X%	c #7A6B5C",
"Y%	c #7F6C5B",
"Z%	c #75614F",
"`%	c #643E1E",
" &	c #8D6C4D",
".&	c #A8A59F",
"+&	c #B7A791",
"@&	c #59381F",
"#&	c #797269",
"$&	c #736864",
"%&	c #7D7067",
"&&	c #4F5059",
"*&	c #626166",
"=&	c #505254",
"-&	c #5D5E61",
";&	c #626061",
">&	c #615D5C",
",&	c #625F61",
"'&	c #686463",
")&	c #6D6763",
"!&	c #69635D",
"~&	c #65605B",
"{&	c #676160",
"]&	c #6D6461",
"^&	c #796B5D",
"/&	c #8A7664",
"(&	c #826D62",
"_&	c #7E6D60",
":&	c #847561",
"<&	c #8D6D58",
"[&	c #9E9081",
"}&	c #CBD8DC",
"|&	c #C3B8A0",
"1&	c #B9BBBA",
"2&	c #D5CEBB",
"3&	c #7F614F",
"4&	c #545155",
"5&	c #414044",
"6&	c #494B50",
"7&	c #00102F",
"8&	c #E2BF9F",
"9&	c #383B48",
"0&	c #303847",
"a&	c #42454C",
"b&	c #353D49",
"c&	c #3B3F4A",
"d&	c #41444A",
"e&	c #414346",
"f&	c #504B54",
"g&	c #393D43",
"h&	c #3F454B",
"i&	c #2C2D3E",
"j&	c #424347",
"k&	c #5D534C",
"l&	c #7D685A",
"m&	c #635549",
"n&	c #66564C",
"o&	c #5B4940",
"p&	c #62584A",
"q&	c #5D4E3C",
"r&	c #572909",
"s&	c #9D8267",
"t&	c #ADB6AF",
"u&	c #C1C4B4",
"v&	c #5D3C21",
"w&	c #C2B198",
"x&	c #FFEEBE",
"y&	c #DAC5A4",
"z&	c #9E8D81",
"A&	c #9B8D7B",
"B&	c #213246",
"C&	c #EEE5B6",
"D&	c #F2D4AB",
"E&	c #A69D87",
"F&	c #8A776F",
"G&	c #FFDAAF",
"H&	c #FFE3B8",
"I&	c #645C5B",
"J&	c #9E9281",
"K&	c #F1CEA7",
"L&	c #FFE6BC",
"M&	c #9E887A",
"N&	c #9E8270",
"O&	c #CAAE87",
"P&	c #DAC8A7",
"Q&	c #4E463D",
"R&	c #FFFFD4",
"S&	c #EDB991",
"T&	c #F3D5B2",
"U&	c #643D23",
"V&	c #DFEFEA",
"W&	c #742300",
"X&	c #E8AC8C",
"Y&	c #9D9587",
"Z&	c #D3BE9F",
"`&	c #3D3941",
" *	c #00000D",
".*	c #AB9782",
"+*	c #CDAD91",
"@*	c #A59A84",
"#*	c #49454D",
"$*	c #00071F",
"%*	c #312D3D",
"&*	c #F7D2A9",
"**	c #000011",
"=*	c #2E2B31",
"-*	c #D5B996",
";*	c #DBB798",
">*	c #000000",
",*	c #3C4349",
"'*	c #8A7F6F",
")*	c #FDEBC1",
"!*	c #7E5D4A",
"~*	c #DAB996",
"{*	c #937E62",
"]*	c #D1B693",
"^*	c #0C0000",
"/*	c #FAE4C1",
"(*	c #491F00",
"_*	c #D3F0F8",
":*	c #792700",
"<*	c #AAA89D",
"[*	c #6F706C",
"}*	c #FFFFE2",
"|*	c #BCA691",
"1*	c #748384",
"2*	c #D1B8A2",
"3*	c #D0BCAA",
"4*	c #7A7A79",
"5*	c #CBC8AD",
"6*	c #9F9F96",
"7*	c #AB9F8E",
"8*	c #DFBCA1",
"9*	c #B1AA99",
"0*	c #CBBEA7",
"a*	c #A39081",
"b*	c #BBA28C",
"c*	c #8B8275",
"d*	c #BBAB97",
"e*	c #B0A18B",
"f*	c #D9B591",
"g*	c #8E8973",
"h*	c #D2B79C",
"i*	c #9B7961",
"j*	c #FFF3CA",
"k*	c #53402D",
"l*	c #73512F",
"m*	c #FFFFF8",
"n*	c #FFF9E8",
"o*	c #FCE6DC",
"p*	c #DFE6EC",
"q*	c #90725B",
"r*	c #A5A789",
"s*	c #211D21",
"t*	c #3C4C46",
"u*	c #06030E",
"v*	c #786F5E",
"w*	c #9A9B82",
"x*	c #343635",
"y*	c #0B0812",
"z*	c #918D76",
"A*	c #8C8874",
"B*	c #A3836C",
"C*	c #8A775D",
"D*	c #B19879",
"E*	c #89765F",
"F*	c #161715",
"G*	c #9BA28F",
"H*	c #6B6E62",
"I*	c #362013",
"J*	c #5D614E",
"K*	c #1F1611",
"L*	c #666252",
"M*	c #2F231A",
"N*	c #230000",
"O*	c #520200",
"                                                                ",
"  . + @ # $ % & * = - ; > , ' ) ! ~ { ] ^ / ( _ : < [ } .       ",
"  | 1 2 3 4 5 6 7 8 9 0 a b c d e f g h i j k l m n o p q r     ",
"  s t u v w x y z A B C D E F G H I J K L M N O P Q R S T U     ",
"  V W X Y Z `  ...+.@.#.$.%.&.*.=.-.;.>.,.'.).!.~.{.].^./.(.    ",
"  _.:.<.[.}.|.1.2.3.4.5.6.7.8.9.0.a.b.c.d.e.f.g.h.i.j.k.l.m.    ",
"  n.o.p.q.r.s.t.u.v.w.x.y.z.A.B.C.D.E.F.G.H.I.J.K.L.M.N.O.P.    ",
"  Q.R.S.T.U.V.W.X.Y.Z.`. +.+++@+#+$+%+&+*+=+-+;+>+,+'+)+!+~+{+  ",
"  ]+^+/+(+_+:+<+[+}+|+1+2+3+4+5+6+7+8+9+0+a+b+c+d+e+f+g+h+i+    ",
"  j+k+l+m+n+o+p+q+r+s+t+3+u+v+w+x+y+z+A+B+C+D+E+F+G+H+I+J+K+    ",
"  L+M+N+O+P+Q+R+S+T+U+V+W+X+Y+Z+`+ @.@+@@@#@$@%@&@*@=@-@;@>@    ",
"  ,@'@)@!@~@{@]@^@/@(@_@:@<@[@}@|@1@2@3@4@5@6@7@8@9@0@a@b@c@    ",
"  d@e@f@g@h@i@j@k@l@m@n@o@p@q@r@s@t@u@v@w@x@y@z@A@B@C@D@E@F@    ",
"  G@H@I@J@K@L@M@N@O@P@Q@R@S@T@U@V@W@X@Y@Z@`@ #.#+#@###$#%#&#    ",
"  *#=#-#;#>#,#'#)#!#~#{#]#^#/#(#_#:#<#[#}#|#1#2#3#4#5#6#7#8#    ",
"  9#0#a#b#'#c#d#e#f#g#h#i#j#k#l#m#n#o#p#q#r#s#t#u#v#w#x#y#z#    ",
"  A#B#C#c#D#E#F#G#H#I#J#K#L#M#N#O#P#Q#R#S#T#U#V#W#X#Y#Z#`# $    ",
"  .$+$@$#$$$%$&$*$=$-$;$>$,$'$Q#)$!$~${$]$^$/$($_$:$<$[$}$|$    ",
"  1$2$3$4$5$6$7$8$9$0$a$b$Q#~$~$c$d$e$f$g$h$i$j$k$l$m$n$o$p$    ",
"  q$Q#r$s$t$u$v$P#w$x$y$z$A$B$C$D$E$F$G$H$I$J$K$L$M$N$O$P$Q$    ",
"  R$S$T$U$V$W$X$Y$Z$z$`$ %.%+%e$@%#%$%%%&%*%=%-%;%>%,%'%)%!%    ",
"  ~%{%]%^%/%(%_%:%<%[%D$}%|%1%2%3%4%5%6%7%8%9%0%a%b%. c%d%e%    ",
"  f%g%h%i%j%k%l%m%n%3%o%F$p%q%r%s%t%u%v%w%x%y%z%A%B%C%D%E%F%    ",
"  G%H%($I%J%K%l%_%L%s%M%N%O%P%Q%R%S%T%U%V%W%X%Y%Z%`% &.&+&@&    ",
"  #&$&%&&&*&=&-&;&>&,&'&)&!&~&{&]&i$^&/&(&_&:&<&[&}&|&1&2&3&    ",
"  4&5&6&7&8&9&0&a&b&c&d&e&f&g&h&i&j&k&l&m&n&o&p&q&r&s&t&u&v&    ",
"  w&x&y&z&A&B&C&D&E&F&G&H&I&J&K&L&M&N&O&P&Q&R&S&T&U&V&W&X&Y&    ",
"  Z&`& *.*+*@*#*$*%*&***=*-*;*>*,*'*)*!*~*{*]*^*/*(*_*:*<*[*    ",
"  }*|*1*2*3*4*5*6*7*8*9*0*a*b*c*d*e*f*g*h*i*j*k*}*l*m*n*o*p*    ",
"    q*r*s*t*u*v*w*x*y*z*A*>*B*C*D*E*F*G*H*I*J*K*L*M*N*O*>*      ",
"                                                                ",
"                                                                "};
