/* XPM */
static char * quatsch_editor_xpm[] = {
"32 32 223 2",
"  	c None",
". 	c #A3A3A3",
"+ 	c #979797",
"@ 	c #4E4E4E",
"# 	c #3E3E3E",
"$ 	c #878787",
"% 	c #898989",
"& 	c #B3B3B3",
"* 	c #DDDDDD",
"= 	c #C7C7C7",
"- 	c #737373",
"; 	c #282828",
"> 	c #2F2F2F",
", 	c #5D5D5D",
"' 	c #848484",
") 	c #ABABAB",
"! 	c #7F7F7F",
"~ 	c #5C5C5C",
"{ 	c #3A3A3A",
"] 	c #535353",
"^ 	c #090909",
"/ 	c #242424",
"( 	c #404040",
"_ 	c #222222",
": 	c #1C1C1C",
"< 	c #919191",
"[ 	c #A6A6A6",
"} 	c #9F9F9F",
"| 	c #A1A1A1",
"1 	c #6C6C6C",
"2 	c #1B1B1B",
"3 	c #3F3F3F",
"4 	c #424242",
"5 	c #8F8F8F",
"6 	c #A9A9A9",
"7 	c #949494",
"8 	c #2C2C2C",
"9 	c #2B2B2B",
"0 	c #959595",
"a 	c #767676",
"b 	c #606060",
"c 	c #969696",
"d 	c #C6C6C6",
"e 	c #D5D5D5",
"f 	c #D4D4D4",
"g 	c #B2B2B2",
"h 	c #929292",
"i 	c #8C8C8C",
"j 	c #252525",
"k 	c #7E7E7E",
"l 	c #1D1D1D",
"m 	c #7D7D7D",
"n 	c #C3C3C3",
"o 	c #A7A7A7",
"p 	c #585858",
"q 	c #1A1A1A",
"r 	c #494949",
"s 	c #E0E0E0",
"t 	c #D9D9D9",
"u 	c #CFCFCF",
"v 	c #CECECE",
"w 	c #DEDEDE",
"x 	c #F7F7F7",
"y 	c #FFFFFF",
"z 	c #F6F6F6",
"A 	c #ADADAD",
"B 	c #AFAFAF",
"C 	c #343434",
"D 	c #777777",
"E 	c #727272",
"F 	c #0E0E0E",
"G 	c #747474",
"H 	c #939393",
"I 	c #151515",
"J 	c #4F4F4F",
"K 	c #868686",
"L 	c #A5A5A5",
"M 	c #CCCCCC",
"N 	c #DFDFDF",
"O 	c #DBDBDB",
"P 	c #BFBFBF",
"Q 	c #797979",
"R 	c #7A7A7A",
"S 	c #626262",
"T 	c #373737",
"U 	c #4A4A4A",
"V 	c #0D0D0D",
"W 	c #292929",
"X 	c #696969",
"Y 	c #9A9A9A",
"Z 	c #484848",
"` 	c #0B0B0B",
" .	c #B7B7B7",
"..	c #D7D7D7",
"+.	c #CACACA",
"@.	c #4D4D4D",
"#.	c #040404",
"$.	c #111111",
"%.	c #121212",
"&.	c #1E1E1E",
"*.	c #565656",
"=.	c #909090",
"-.	c #808080",
";.	c #303030",
">.	c #858585",
",.	c #4C4C4C",
"'.	c #0F0F0F",
").	c #000000",
"!.	c #5A5A5A",
"~.	c #8A8A8A",
"{.	c #FAFAFA",
"].	c #9B9B9B",
"^.	c #818181",
"/.	c #BDBDBD",
"(.	c #272727",
"_.	c #AEAEAE",
":.	c #D1D1D1",
"<.	c #AAAAAA",
"[.	c #555555",
"}.	c #CDCDCD",
"|.	c #F0F0F0",
"1.	c #717171",
"2.	c #383838",
"3.	c #D2D2D2",
"4.	c #ECECEC",
"5.	c #202020",
"6.	c #2E2E2E",
"7.	c #C9C9C9",
"8.	c #B4B4B4",
"9.	c #8B8B8B",
"0.	c #6B6B6B",
"a.	c #A4A4A4",
"b.	c #BABABA",
"c.	c #030303",
"d.	c #DADADA",
"e.	c #A8A8A8",
"f.	c #EDEDED",
"g.	c #232323",
"h.	c #515151",
"i.	c #B0B0B0",
"j.	c #D6D6D6",
"k.	c #E2E2E2",
"l.	c #595959",
"m.	c #262626",
"n.	c #707070",
"o.	c #E4E4E4",
"p.	c #B5B5B5",
"q.	c #C8C8C8",
"r.	c #010101",
"s.	c #0A0A0A",
"t.	c #161616",
"u.	c #C0C0C0",
"v.	c #989898",
"w.	c #828282",
"x.	c #6E6E6E",
"y.	c #050505",
"z.	c #171717",
"A.	c #545454",
"B.	c #9E9E9E",
"C.	c #D8D8D8",
"D.	c #6F6F6F",
"E.	c #353535",
"F.	c #F2F2F2",
"G.	c #2A2A2A",
"H.	c #212121",
"I.	c #414141",
"J.	c #333333",
"K.	c #F4F4F4",
"L.	c #CBCBCB",
"M.	c #C4C4C4",
"N.	c #101010",
"O.	c #181818",
"P.	c #393939",
"Q.	c #8E8E8E",
"R.	c #9D9D9D",
"S.	c #3C3C3C",
"T.	c #616161",
"U.	c #464646",
"V.	c #E7E7E7",
"W.	c #EFEFEF",
"X.	c #B1B1B1",
"Y.	c #B8B8B8",
"Z.	c #686868",
"`.	c #6D6D6D",
" +	c #BCBCBC",
".+	c #575757",
"++	c #B9B9B9",
"@+	c #9C9C9C",
"#+	c #636363",
"$+	c #2D2D2D",
"%+	c #020202",
"&+	c #8D8D8D",
"*+	c #454545",
"=+	c #7C7C7C",
"-+	c #888888",
";+	c #444444",
">+	c #6A6A6A",
",+	c #5F5F5F",
"'+	c #0C0C0C",
")+	c #E6E6E6",
"!+	c #787878",
"~+	c #676767",
"{+	c #4B4B4B",
"]+	c #F8F8F8",
"^+	c #ACACAC",
"/+	c #666666",
"(+	c #D0D0D0",
"_+	c #080808",
":+	c #434343",
"<+	c #E1E1E1",
"[+	c #141414",
"}+	c #3D3D3D",
"|+	c #5E5E5E",
"1+	c #525252",
"2+	c #838383",
"3+	c #A2A2A2",
"4+	c #191919",
"5+	c #C5C5C5",
"6+	c #999999",
"7+	c #646464",
"8+	c #070707",
"9+	c #313131",
"0+	c #5B5B5B",
"                                                                ",
"                                                                ",
"          . + @ # $ % & * = - ; > , ' ) ! ~ { ]                 ",
"      ^ / ( _ : - < [ } | 1 2 3 _ 4 ~ 5 6 7 8 9 2               ",
"      0 a b 1 c d e f g h i j ] k l ^ m n o p q 9 r             ",
"    | s t u v w x y z = A B C D n E F G H 5 E I J B K           ",
"    L = M u N O P + Q R S # q T U T V W X i Y Z ` J ,           ",
"    6  .= ..* +.@.#.$.%.2 &./ *.=.-.;.3 > >.[ h , ,.'.).        ",
"    !.~.O {.N ].2 r ,.^.+ j *./.v !.(.% T > _.:.<.$ 3 ).        ",
"    [.. }.|.f -.&.X 1.. w ~ 2.3.4.$ 5.*.6.r 7.N 8.9.,.).        ",
"    0.a.[ b.+ # c.j ] 7 d.a./ e.f.e R g.h.i.j.k.3.$ ;.).        ",
"    6.l.H =.p T m.; n.b.k.. / ! o.+.p.+ 1.Y q.3.8.{ r.).        ",
"    s.&.4 ( # (.t.2.].3.* c &.Q * u...u v.7 w.^.x.2 V ).        ",
"    s.y._ z.z.^ ).y.A.B.C.D.E.q.F...* 3.<.A.l G.b 4 ; ).        ",
"    H.)./ I.2 5./ { j U e.J.- |.K.3.L.M.A 4 '.N.I.W O.).        ",
"    ` m.r P.m.-.Q.L R.S.T.U.q.V.W.v X.6 Y.Z.c.r.I T.A.).        ",
"    Z ' Y >.2 `. +s = 4 : .+++* F.+.H 1.>.{ I.4 ; $ m ).        ",
"    @+- #+$+E.Z.[ M 5 Z %+@.&+X.M a.*+^ _ 3 =+S > ,.@.).        ",
"    `.q E.D c &+K Y -+Q ;+- =+>+,+4 '+1 o m %.'.z.N.'+).        ",
"    H 9 } )+u R.0.!+=.7 i ~+{+> &.; $ u ]+} ` $.^ U q ).        ",
"    M.6.B.y o.g J @.v.^+L a /++ !.'.,.^+(+T.4 p _+:+'.).        ",
"    D t.B.|.<+i.@.@.k X.+. +o } k 2.[+}+J j !+D T z.: ).        ",
"    J.h.g t N = h 2.*./.K.N P L ].w.|+@ 1+2+6  .|+( J ).        ",
"    (.T _...f e.K !+0 }.|...X.e.L k ;+[.3+& _.8.@.6.j ).        ",
"      4+| )+f | ' ^+5+d  +6+!+7+~ { V 8+h.,+( ] S.V ).).        ",
"        P y |.t P =.m =+>.{ 6.X (.:+m.t.N.%.E.g.F %+).          ",
"          R.P i.} D .+r 1+6.z.6.9+2+|+> &.J.0+q ).).            ",
"              ).).).).).).).).).).).).).).).).).).              ",
"                                                                ",
"                                                                ",
"                                                                ",
"                                                                "};
