/* XPM */
static char * simplexgui_xpm[] = {
"32 32 818 2",
"  	c None",
". 	c #EEFAFB",
"+ 	c #D6E1E2",
"@ 	c #DFE2E4",
"# 	c #CDD5DC",
"$ 	c #CDD6DD",
"% 	c #E0E4E5",
"& 	c #F2F1EA",
"* 	c #F4F0E9",
"= 	c #E0E7E5",
"- 	c #DBE5E3",
"; 	c #E1E7E3",
"> 	c #E5E6E3",
", 	c #DAE0DF",
"' 	c #E1E3E2",
") 	c #ECEEE6",
"! 	c #DDE4E1",
"~ 	c #EAECE6",
"{ 	c #FFFBED",
"] 	c #F3F2E9",
"^ 	c #DFE4E1",
"/ 	c #E3EAE3",
"( 	c #E6E8E4",
"_ 	c #DCE2DF",
": 	c #D5DADC",
"< 	c #D8DEDD",
"[ 	c #D9E0DF",
"} 	c #DDE1DF",
"| 	c #E6EEF0",
"1 	c #D7E0DE",
"2 	c #CFD2D0",
"3 	c #C7D0D1",
"4 	c #CDD7D1",
"5 	c #DFE5D6",
"6 	c #E0DED4",
"7 	c #AFBDC1",
"8 	c #ACB7BD",
"9 	c #CBCECA",
"0 	c #E1DACF",
"a 	c #AFBDC2",
"b 	c #B5BFC0",
"c 	c #C1CAC6",
"d 	c #B5BEC0",
"e 	c #A6B5B7",
"f 	c #A5B0B4",
"g 	c #9BA9AF",
"h 	c #A1B2B5",
"i 	c #BEC5C2",
"j 	c #E1DEC9",
"k 	c #D9D7C6",
"l 	c #A6B4B8",
"m 	c #A2B6BA",
"n 	c #A3B5B9",
"o 	c #A6B8BB",
"p 	c #B2BDC0",
"q 	c #C6C7C2",
"r 	c #F3F3E1",
"s 	c #A7ABA4",
"t 	c #DED6D1",
"u 	c #CFC6BE",
"v 	c #CAC4C0",
"w 	c #F8E7C8",
"x 	c #D1D1C1",
"y 	c #C9C9C0",
"z 	c #8F9EA8",
"A 	c #9BA6AF",
"B 	c #BBBCBA",
"C 	c #ADB2AF",
"D 	c #8897A4",
"E 	c #9AA6AD",
"F 	c #9BACB5",
"G 	c #A1B1B7",
"H 	c #ABBABD",
"I 	c #A0B4BB",
"J 	c #94AAB6",
"K 	c #97A5B3",
"L 	c #B8B9B8",
"M 	c #A8ACB6",
"N 	c #A3ACB5",
"O 	c #B2B6B7",
"P 	c #BEB9BA",
"Q 	c #C6C2B9",
"R 	c #B9B6B5",
"S 	c #BEB9B4",
"T 	c #BCB9B4",
"U 	c #DADBCA",
"V 	c #94958E",
"W 	c #889AA7",
"X 	c #7B8C9B",
"Y 	c #7A91A0",
"Z 	c #75899B",
"` 	c #75869A",
" .	c #7C909F",
"..	c #909CA2",
"+.	c #939DA8",
"@.	c #8799A5",
"#.	c #8197A6",
"$.	c #8C9FAA",
"%.	c #A6ADB0",
"&.	c #C2C0B9",
"*.	c #ACAEAE",
"=.	c #A5A5A3",
"-.	c #EAD2BE",
";.	c #FCDEC2",
">.	c #FFF3C6",
",.	c #FFF6C1",
"'.	c #FFECBD",
").	c #FFF5C4",
"!.	c #FFF9C6",
"~.	c #FFF3C2",
"{.	c #D4C2B0",
"].	c #919EA5",
"^.	c #8D9EA3",
"/.	c #8798A1",
"(.	c #B7B8B6",
"_.	c #6B7075",
":.	c #96A3AE",
"<.	c #8F9CA7",
"[.	c #8E9CA5",
"}.	c #8F9CA5",
"|.	c #8A9CA6",
"1.	c #8D9DA7",
"2.	c #8596A4",
"3.	c #8698A4",
"4.	c #96A0A7",
"5.	c #BDB5AD",
"6.	c #D1BFB0",
"7.	c #AFA6A1",
"8.	c #B0A8A3",
"9.	c #717D8A",
"0.	c #627486",
"a.	c #7B848E",
"b.	c #8E9394",
"c.	c #BCBAA6",
"d.	c #FCD8B5",
"e.	c #FFE9BB",
"f.	c #EFD4B4",
"g.	c #E2C9B0",
"h.	c #FFD5AD",
"i.	c #C4B2A6",
"j.	c #A4A19E",
"k.	c #9B9997",
"l.	c #969699",
"m.	c #8E99A4",
"n.	c #59656D",
"o.	c #A2ADB2",
"p.	c #9BA5AA",
"q.	c #94A5AA",
"r.	c #919DA8",
"s.	c #A3A9A8",
"t.	c #A6A6A7",
"u.	c #C1B4AB",
"v.	c #DAC2B0",
"w.	c #CCB9A6",
"x.	c #A7A09A",
"y.	c #6B7C8B",
"z.	c #677889",
"A.	c #6B7E8B",
"B.	c #77838D",
"C.	c #7B878F",
"D.	c #72828C",
"E.	c #6E7D8B",
"F.	c #5C6F83",
"G.	c #5D7086",
"H.	c #6E7A8A",
"I.	c #586E82",
"J.	c #4B657D",
"K.	c #737D89",
"L.	c #6D7C89",
"M.	c #617283",
"N.	c #677886",
"O.	c #697887",
"P.	c #989CA0",
"Q.	c #6A6A6D",
"R.	c #7C8E9C",
"S.	c #838A95",
"T.	c #BAA8A4",
"U.	c #D9BFAD",
"V.	c #D6BDAA",
"W.	c #EEC8AD",
"X.	c #D6BCA4",
"Y.	c #7D8993",
"Z.	c #657A8C",
"`.	c #667A8A",
" +	c #78858F",
".+	c #7A858E",
"++	c #78838D",
"@+	c #78858E",
"#+	c #7B858D",
"$+	c #78858D",
"%+	c #82888C",
"&+	c #7A828B",
"*+	c #838A8D",
"=+	c #858B8F",
"-+	c #878A8C",
";+	c #868989",
">+	c #79848A",
",+	c #7A858F",
"'+	c #767C81",
")+	c #7E848C",
"!+	c #4B5159",
"~+	c #978F96",
"{+	c #969291",
"]+	c #979293",
"^+	c #828A8F",
"/+	c #8C8D8F",
"(+	c #95928E",
"_+	c #808990",
":+	c #868B91",
"<+	c #838990",
"[+	c #7D8891",
"}+	c #7C868F",
"|+	c #78838C",
"1+	c #7A868F",
"2+	c #75838C",
"3+	c #7C868E",
"4+	c #8B8E90",
"5+	c #868B8E",
"6+	c #81878D",
"7+	c #93908E",
"8+	c #8F8E8E",
"9+	c #96918E",
"0+	c #8A8B8D",
"a+	c #A2978E",
"b+	c #B0A190",
"c+	c #A4998F",
"d+	c #737078",
"e+	c #4E6570",
"f+	c #777780",
"g+	c #4C4D53",
"h+	c #BCA49A",
"i+	c #B7A596",
"j+	c #ADA298",
"k+	c #CDB29D",
"l+	c #CEB39C",
"m+	c #B2A49A",
"n+	c #A79E96",
"o+	c #8D9093",
"p+	c #838B92",
"q+	c #8A8E92",
"r+	c #81898F",
"s+	c #7E878F",
"t+	c #7E878E",
"u+	c #8E908F",
"v+	c #A89991",
"w+	c #8C8F8E",
"x+	c #98938F",
"y+	c #A89B90",
"z+	c #A49B8F",
"A+	c #B1A492",
"B+	c #9C978F",
"C+	c #C3AA92",
"D+	c #BDA28A",
"E+	c #978480",
"F+	c #596675",
"G+	c #626A71",
"H+	c #82737A",
"I+	c #3C4950",
"J+	c #E6C4A1",
"K+	c #DFBC9D",
"L+	c #F2C5A2",
"M+	c #EBC2A2",
"N+	c #C7AE9C",
"O+	c #BDA999",
"P+	c #9E9895",
"Q+	c #949698",
"R+	c #969595",
"S+	c #989292",
"T+	c #7C8790",
"U+	c #7F878F",
"V+	c #91908D",
"W+	c #A79A8F",
"X+	c #BEA996",
"Y+	c #B4A08D",
"Z+	c #BDA68E",
"`+	c #B9A08A",
" @	c #CBAA8E",
".@	c #B2A08B",
"+@	c #CEAA89",
"@@	c #AE9781",
"#@	c #90897D",
"$@	c #7F7775",
"%@	c #76666C",
"&@	c #516677",
"*@	c #414750",
"=@	c #CCAD97",
"-@	c #C3A690",
";@	c #B99D8D",
">@	c #C8A590",
",@	c #D7B295",
"'@	c #BCAC98",
")@	c #ADA398",
"!@	c #899090",
"~@	c #A09C96",
"{@	c #809195",
"]@	c #80898E",
"^@	c #8C8F90",
"/@	c #A19D9A",
"(@	c #C1AE9A",
"_@	c #D0B89E",
":@	c #CFB496",
"<@	c #B3A58D",
"[@	c #DCB890",
"}@	c #CCAE8D",
"|@	c #CAA98B",
"1@	c #CDA88B",
"2@	c #C3A387",
"3@	c #CDA785",
"4@	c #CCAB85",
"5@	c #C79E7F",
"6@	c #746B6E",
"7@	c #545E6A",
"8@	c #5A6974",
"9@	c #3B454B",
"0@	c #B4988A",
"a@	c #AC9C8A",
"b@	c #B39E8B",
"c@	c #E1B28E",
"d@	c #CFAB8C",
"e@	c #957F7B",
"f@	c #6B626A",
"g@	c #766569",
"h@	c #A6736A",
"i@	c #9F7F78",
"j@	c #6F7275",
"k@	c #817575",
"l@	c #827873",
"m@	c #A58375",
"n@	c #C4987E",
"o@	c #CBA485",
"p@	c #9C8075",
"q@	c #A38274",
"r@	c #E6B18A",
"s@	c #D3AE8C",
"t@	c #DFB38E",
"u@	c #D5AF86",
"v@	c #BA9C81",
"w@	c #AA927B",
"x@	c #948475",
"y@	c #787571",
"z@	c #6E6B6A",
"A@	c #5F6A72",
"B@	c #3B434B",
"C@	c #D9B594",
"D@	c #A79082",
"E@	c #7E7978",
"F@	c #535E70",
"G@	c #425369",
"H@	c #4A5867",
"I@	c #54616C",
"J@	c #56606D",
"K@	c #5F646E",
"L@	c #816D6E",
"M@	c #796C6D",
"N@	c #5B666D",
"O@	c #415C6A",
"P@	c #545C68",
"Q@	c #474F5F",
"R@	c #364A60",
"S@	c #454C5C",
"T@	c #3D4A5B",
"U@	c #5D555E",
"V@	c #4F5864",
"W@	c #686267",
"X@	c #A68071",
"Y@	c #B08B75",
"Z@	c #D9AB7F",
"`@	c #C09C7B",
" #	c #958371",
".#	c #7D726B",
"+#	c #6D7073",
"@#	c #3C444A",
"##	c #89787A",
"$#	c #5D5D6D",
"%#	c #485B6C",
"&#	c #4C5E6D",
"*#	c #535F6C",
"=#	c #54616D",
"-#	c #53606C",
";#	c #55606C",
">#	c #57616A",
",#	c #5D676C",
"'#	c #737473",
")#	c #686B6D",
"!#	c #896C6B",
"~#	c #6F6064",
"{#	c #475963",
"]#	c #4C5863",
"^#	c #4C5A63",
"/#	c #4C5965",
"(#	c #4B5A64",
"_#	c #485864",
":#	c #6C6163",
"<#	c #58545F",
"[#	c #3C4C59",
"}#	c #5C575D",
"|#	c #8A7368",
"1#	c #B18B6F",
"2#	c #98836E",
"3#	c #847B75",
"4#	c #45484A",
"5#	c #5F6773",
"6#	c #5A626C",
"7#	c #57626E",
"8#	c #58626D",
"9#	c #54606C",
"0#	c #55606B",
"a#	c #59626C",
"b#	c #58636D",
"c#	c #56666D",
"d#	c #7B7474",
"e#	c #6E6B6B",
"f#	c #665A62",
"g#	c #906662",
"h#	c #5F5C61",
"i#	c #5F5A61",
"j#	c #4D5762",
"k#	c #505962",
"l#	c #595C61",
"m#	c #947063",
"n#	c #695F61",
"o#	c #5F6061",
"p#	c #5C6063",
"q#	c #5F5E63",
"r#	c #7A6D65",
"s#	c #756761",
"t#	c #9B8369",
"u#	c #9D8876",
"v#	c #524E4B",
"w#	c #5E6871",
"x#	c #555F6A",
"y#	c #56606B",
"z#	c #53606B",
"A#	c #50606B",
"B#	c #52616B",
"C#	c #70696A",
"D#	c #A27C6D",
"E#	c #957468",
"F#	c #605A60",
"G#	c #3A505F",
"H#	c #3B4F60",
"I#	c #46555F",
"J#	c #4E5760",
"K#	c #4E565F",
"L#	c #4B555D",
"M#	c #51575F",
"N#	c #565B5F",
"O#	c #6C605F",
"P#	c #585A5F",
"Q#	c #5C5C5F",
"R#	c #625F60",
"S#	c #636161",
"T#	c #827164",
"U#	c #7F7266",
"V#	c #957E67",
"W#	c #B3987A",
"X#	c #63584D",
"Y#	c #5D656F",
"Z#	c #525C68",
"`#	c #535E6A",
" $	c #57606B",
".$	c #58616A",
"+$	c #866F6A",
"@$	c #897067",
"#$	c #917066",
"$$	c #A77264",
"%$	c #4A525E",
"&$	c #50535D",
"*$	c #4E555E",
"=$	c #52565B",
"-$	c #4C535D",
";$	c #52575E",
">$	c #605D5F",
",$	c #5C5D5C",
"'$	c #5C5D5E",
")$	c #646060",
"!$	c #676260",
"~$	c #676061",
"{$	c #897665",
"]$	c #8B7867",
"^$	c #927C67",
"/$	c #BA9779",
"($	c #6F5F4E",
"_$	c #57636C",
":$	c #545E68",
"<$	c #575F68",
"[$	c #595F67",
"}$	c #5C5F63",
"|$	c #5B5C62",
"1$	c #5F5C62",
"2$	c #50545E",
"3$	c #3D4D5C",
"4$	c #41505E",
"5$	c #4A555D",
"6$	c #4F555E",
"7$	c #53575E",
"8$	c #51565D",
"9$	c #4E535B",
"0$	c #55585D",
"a$	c #64615F",
"b$	c #645F5C",
"c$	c #635F5E",
"d$	c #68625F",
"e$	c #6C645F",
"f$	c #6B6561",
"g$	c #897B65",
"h$	c #927C68",
"i$	c #917A64",
"j$	c #BB9473",
"k$	c #7A614C",
"l$	c #565E67",
"m$	c #545A63",
"n$	c #585D64",
"o$	c #5C5E64",
"p$	c #5B5E63",
"q$	c #616061",
"r$	c #55555E",
"s$	c #4B555E",
"t$	c #4C545C",
"u$	c #4D545D",
"v$	c #4E555C",
"w$	c #50555D",
"x$	c #54585E",
"y$	c #56595E",
"z$	c #54585D",
"A$	c #52565C",
"B$	c #51545B",
"C$	c #59585C",
"D$	c #69635E",
"E$	c #69625E",
"F$	c #66605E",
"G$	c #726760",
"H$	c #6D6560",
"I$	c #887464",
"J$	c #967E65",
"K$	c #8F7963",
"L$	c #AD9172",
"M$	c #77624C",
"N$	c #5B6069",
"O$	c #575D62",
"P$	c #5E6065",
"Q$	c #606064",
"R$	c #606062",
"S$	c #53565E",
"T$	c #49525C",
"U$	c #4F585D",
"V$	c #4B535C",
"W$	c #51555C",
"X$	c #54575D",
"Y$	c #58595E",
"Z$	c #59595E",
"`$	c #56585D",
" %	c #54575C",
".%	c #53555B",
"+%	c #605D5D",
"@%	c #706660",
"#%	c #6D655F",
"$%	c #6C625E",
"%%	c #71665F",
"&%	c #776960",
"*%	c #74685F",
"=%	c #827161",
"-%	c #957D62",
";%	c #997F61",
">%	c #C09573",
",%	c #8F674D",
"'%	c #5E5F67",
")%	c #5C5E61",
"!%	c #626163",
"~%	c #635F62",
"{%	c #5E5C5F",
"]%	c #4E535A",
"^%	c #4F545B",
"/%	c #4C535A",
"(%	c #4D525B",
"_%	c #53565C",
":%	c #51565C",
"<%	c #56585C",
"[%	c #5B5B5E",
"}%	c #5B5B5D",
"|%	c #57585D",
"1%	c #57575C",
"2%	c #64605E",
"3%	c #746960",
"4%	c #71675F",
"5%	c #70665F",
"6%	c #74685E",
"7%	c #7A6A5E",
"8%	c #776A5D",
"9%	c #81705E",
"0%	c #B18361",
"a%	c #9F765D",
"b%	c #9D8168",
"c%	c #635245",
"d%	c #606065",
"e%	c #636061",
"f%	c #55565C",
"g%	c #4E525A",
"h%	c #51545A",
"i%	c #4F535B",
"j%	c #52555B",
"k%	c #55575C",
"l%	c #56575B",
"m%	c #5A595C",
"n%	c #605E5D",
"o%	c #5C5A5B",
"p%	c #56575A",
"q%	c #5B595C",
"r%	c #6A635F",
"s%	c #7A6C61",
"t%	c #76685F",
"u%	c #74675D",
"v%	c #76655D",
"w%	c #7C6C5D",
"x%	c #7A6859",
"y%	c #826C5B",
"z%	c #92775D",
"A%	c #786959",
"B%	c #967D67",
"C%	c #695544",
"D%	c #696565",
"E%	c #67605F",
"F%	c #666160",
"G%	c #605E5E",
"H%	c #4C5058",
"I%	c #525359",
"J%	c #52545B",
"K%	c #57575B",
"L%	c #58595C",
"M%	c #5E5B5D",
"N%	c #615D5D",
"O%	c #5A585A",
"P%	c #595858",
"Q%	c #595658",
"R%	c #6F655E",
"S%	c #7D6D5F",
"T%	c #78695D",
"U%	c #75675C",
"V%	c #7A6B5C",
"W%	c #7F6C5C",
"X%	c #806D5A",
"Y%	c #84705B",
"Z%	c #93765C",
"`%	c #88725B",
" &	c #9D8267",
".&	c #695746",
"+&	c #716A65",
"@&	c #6D6462",
"#&	c #6E6662",
"$&	c #545359",
"%&	c #615F63",
"&&	c #535659",
"*&	c #55565B",
"=&	c #5A5A5C",
"-&	c #5C595C",
";&	c #5D5C5E",
">&	c #615E5F",
",&	c #65615F",
"'&	c #64605C",
")&	c #615B5B",
"!&	c #5F5B5A",
"~&	c #615D5C",
"{&	c #645D5B",
"]&	c #75685D",
"^&	c #837160",
"/&	c #7D6C5D",
"(&	c #7C6A5D",
"_&	c #806F5C",
":&	c #87705D",
"<&	c #866F5B",
"[&	c #86705B",
"}&	c #90775C",
"|&	c #8D735B",
"1&	c #9F8267",
"2&	c #6C5644",
"3&	c #605C5B",
"4&	c #5E5755",
"5&	c #5E5B5C",
"6&	c #273446",
"7&	c #AF9986",
"8&	c #4C4D55",
"9&	c #444952",
"0&	c #59575A",
"a&	c #494C51",
"b&	c #4B4B52",
"c&	c #5A5557",
"d&	c #5A5553",
"e&	c #585356",
"f&	c #4B4C4E",
"g&	c #595758",
"h&	c #4A484E",
"i&	c #514F4E",
"j&	c #695C52",
"k&	c #867161",
"l&	c #716153",
"m&	c #6E6052",
"n&	c #6D5C4F",
"o&	c #786957",
"p&	c #746451",
"q&	c #826F5A",
"r&	c #91765C",
"s&	c #857359",
"t&	c #967F64",
"u&	c #6C5643",
"v&	c #BB9E88",
"w&	c #E9C4A1",
"x&	c #C0A68F",
"y&	c #98867A",
"z&	c #938477",
"A&	c #505259",
"B&	c #D3B597",
"C&	c #CDAF93",
"D&	c #9D8B7B",
"E&	c #84786E",
"F&	c #D4B496",
"G&	c #DAB99A",
"H&	c #746864",
"I&	c #998677",
"J&	c #C9AB8E",
"K&	c #DDBD9D",
"L&	c #9F8978",
"M&	c #9A8370",
"N&	c #C2A381",
"O&	c #CDAD8E",
"P&	c #776454",
"Q&	c #F6CFA8",
"R&	c #DCAB87",
"S&	c #D8AB89",
"T&	c #7F634D",
"U&	c #88715A",
"V&	c #AA7D5E",
"W&	c #BA896B",
"X&	c #655442",
"Y&	c #C8AB90",
"Z&	c #5F5A5A",
"`&	c #0A1C32",
" *	c #A79480",
".*	c #BAA18A",
"+*	c #AB9784",
"@*	c #615A5B",
"#*	c #212C3C",
"$*	c #555054",
"%*	c #D4B597",
"&*	c #282D36",
"**	c #4F4A49",
"=*	c #C9AE90",
"-*	c #C0A58A",
";*	c #091525",
">*	c #605C58",
",*	c #A5917A",
"'*	c #F1CAA5",
")*	c #89745F",
"!*	c #C6A788",
"~*	c #AC8F72",
"{*	c #CAA484",
"]*	c #503526",
"^*	c #DFBA99",
"/*	c #7B654D",
"(*	c #8B7057",
"_*	c #A7795A",
":*	c #9C8367",
"<*	c #6A5440",
"[*	c #FFD9B1",
"}*	c #B39D8B",
"|*	c #8F847D",
"1*	c #BBA592",
"2*	c #BDA694",
"3*	c #8F817B",
"4*	c #C7AC97",
"5*	c #A99589",
"6*	c #A29182",
"7*	c #BBA28F",
"8*	c #B6A08B",
"9*	c #C6AA91",
"0*	c #A18C7E",
"a*	c #AA937F",
"b*	c #8E7E72",
"c*	c #B9A088",
"d*	c #BBA287",
"e*	c #C6A687",
"f*	c #BB9A7B",
"g*	c #CFAC8D",
"h*	c #A0856A",
"i*	c #E7C19E",
"j*	c #6C5B46",
"k*	c #F7D0AA",
"l*	c #89745A",
"m*	c #AC8667",
"n*	c #C9906F",
"o*	c #C0835D",
"p*	c #20130D",
"q*	c #907661",
"r*	c #877059",
"s*	c #1D1E20",
"t*	c #3E3831",
"u*	c #0B0D14",
"v*	c #605043",
"w*	c #856E57",
"x*	c #322D2B",
"y*	c #111217",
"z*	c #786552",
"A*	c #756250",
"B*	c #02050A",
"C*	c #98806B",
"D*	c #776451",
"E*	c #9E836C",
"F*	c #756252",
"G*	c #1C1713",
"H*	c #89715D",
"I*	c #5F4F42",
"J*	c #2B1F17",
"K*	c #564535",
"L*	c #1D1914",
"M*	c #534538",
"N*	c #292319",
"O*	c #34291F",
"P*	c #573524",
"Q*	c #0A0000",
"                                                                ",
"  . + @ # $ % & * = - ; > , ' ) ! ~ { ] ^ / ( _ : < [ } |       ",
"  1 2 3 4 5 6 7 8 9 0 a b c d e f g h i j k l m n o p q r s     ",
"  t u v w x y z A B C D E F G H I J K L M N O P Q R S T U V     ",
"  W X Y Z `  ...+.@.#.$.%.&.*.=.-.;.>.,.'.).!.~.{.].^./.(._.    ",
"  :.<.[.}.|.1.2.3.4.5.6.7.8.9.0.a.b.c.d.e.f.g.h.i.j.k.l.m.n.    ",
"  o.p.q.r.s.t.u.v.w.x.y.z.A.B.C.D.E.F.G.H.I.J.K.L.M.N.O.P.Q.    ",
"  R.S.T.U.V.W.X.Y.Z.`. +C..+++@+.+#+$+%+&+*+=+-+;+>+,+'+)+!+    ",
"  ~+{+]+^+/+(+_+:+<+[+}+|+1+2+3+4+5+6+7+8+9+0+a+b+c+d+e+f+g+    ",
"  h+i+j+k+l+m+n+o+p+q+r+1+s+t+u+v+w+x+y+z+A+B+C+D+E+F+G+H+I+    ",
"  J+K+L+M+N+O+P+Q+R+S+T+U+6+V+W+X+8+Y+Z+`+ @.@+@@@#@$@%@&@*@    ",
"  =@-@;@>@,@'@)@!@~@{@]@^@/@(@_@:@<@[@}@|@1@2@3@4@5@6@7@8@9@    ",
"  0@a@b@c@d@e@f@g@h@i@j@k@l@m@n@o@p@q@r@s@t@u@v@w@x@y@z@A@B@    ",
"  C@D@E@F@G@H@I@J@K@L@M@N@O@P@Q@R@S@T@U@V@W@X@Y@Z@`@ #.#+#@#    ",
"  ##$#%#&#*#=#-#;#>#,#'#)#!#~#{#]#^#/#(#_#:#<#[#}#|#1#2#3#4#    ",
"  5#6#7#8#9#0#a#b#c#d#e#f#g#h#i#j#j#k#l#m#n#o#p#q#r#s#t#u#v#    ",
"  w#x#*#y#z#A#B#C#D#E#F#G#H#I#J#K#L#M#N#O#P#Q#R#S#T#U#V#W#X#    ",
"  Y#Z#`# $.$+$@$#$$$%$&$*$M#=$M#*$-$;$>$,$'$)$!$~${$]$^$/$($    ",
"  _$:$<$[$}$|$1$2$3$4$5$6$M#7$7$8$9$0$a$b$c$d$e$f$g$h$i$j$k$    ",
"  l$m$n$o$p$q$r$s$t$u$v$w$x$y$z$A$B$C$D$E$F$e$G$H$I$J$K$L$M$    ",
"  N$O$P$Q$R$S$T$U$V$w$W$X$Y$Z$`$ %.%+%@%#%$%%%&%*%=%-%;%>%,%    ",
"  '%)%!%~%{%]%^%/%(%_%:%<%[%}%|% %1%2%3%4%5%6%7%8%9%0%a%b%c%    ",
"  d%)$e%)$f%g%h%i%j%k%l%m%n%o%p%l%q%r%s%t%u%v%w%x%y%z%A%B%C%    ",
"  D%E%F%G%H%I%h%J%f%K%L%M%N%O%P%Q%o%R%S%T%U%V%W%X%Y%Z%`% &.&    ",
"  +&@&#&$&%&&&*&=&-&;&>&,&'&)&!&~&{&]&^&/&(&_&:&<&[&}&|&1&2&    ",
"  3&4&5&6&7&8&9&0&a&b&c&d&e&f&g&h&i&j&k&l&m&n&o&p&q&r&s&t&u&    ",
"  v&w&x&y&z&A&B&C&D&E&F&G&H&I&J&K&L&M&N&O&P&Q&R&S&T&U&V&W&X&    ",
"  Y&Z&`& *.*+*@*#*$*%*&***=*-*;*>*,*'*)*!*~*{*]*^*/*(*_*:*<*    ",
"  [*}*|*1*2*3*4*5*6*7*8*9*0*a*b*c*d*e*f*g*h*i*j*k*l*m*n*o*p*    ",
"    q*r*s*t*u*v*w*x*y*z*A*B*C*D*E*F*G*H*I*J*K*L*M*N*O*P*Q*      ",
"                                                                ",
"                                                                "};
